<svg xmlns="http://www.w3.org/2000/svg" xmlns:xlink="http://www.w3.org/1999/xlink" width="107" height="130" viewBox="0 0 107 130">
    <defs>
        <linearGradient id="prefix__b" x1="52.787%" x2="41.698%" y1="59.183%" y2="44.514%">
            <stop offset="0%" stop-color="#E2E2E2"/>
            <stop offset="100%" stop-color="#CCC"/>
        </linearGradient>
        <linearGradient id="prefix__e" x1="19.7%" x2="52.392%" y1="-41.494%" y2="68.189%">
            <stop offset="0%" stop-color="#005977"/>
            <stop offset="100%" stop-color="#006E93"/>
        </linearGradient>
        <linearGradient id="prefix__h" x1="42.421%" x2="61.121%" y1="17.048%" y2="62.812%">
            <stop offset="0%" stop-color="#006E93"/>
            <stop offset="100%" stop-color="#0089B8"/>
        </linearGradient>
        <linearGradient id="prefix__k" x1="141.893%" x2="-3.133%" y1="87.649%" y2="35.52%">
            <stop offset="0%" stop-color="#00B8FF"/>
            <stop offset="100%" stop-color="#006E93"/>
        </linearGradient>
        <path id="prefix__a" d="M44.376.38l1.147 3.422c3.202 8.569 8.511 16.541 15.307 24.14-7.859-4.881-15.24-7.449-24.242-7.651-2.867 1.755-6.695 1.63-9.451.466-3.545-1.505-7.783 1.45-11.823 2.81l1.098 2.43-5.939 1.262c-4.203-.823-7.509-5.184-9.295-10.122C.914 16.44.7 15.723.499 15.009l-.087-.436"/>
        <path id="prefix__d" d="M.976 2.789l.064.311c.068.273.135.549.215.814 1.375 4.576 5.163 8.32 9.645 7.471L7.291.753.976 2.789z"/>
        <path id="prefix__g" d="M.423 5.642l.658 1.665c.895 2.054 2.039 4.052 3.451 6.054l9.217-4.347c1.07-.333 1.89-.487 2.423-2.143.432-1.291.472-3.22.023-5.24L15.914.64.423 5.642z"/>
        <path id="prefix__j" d="M.836.785c.984 1.798 2.353 2.847 4.602 2.642l1.073-.82c-2.584.06-4.222-.763-4.767-2.562l-.908.74z"/>
    </defs>
    <g fill="none" fill-rule="evenodd">
        <g>
            <path fill="#0089B7" d="M44.705 83.955c20.647 2.25 37.188 5.925 36.939 8.208-.247 2.27-17.191 2.299-37.838.049-20.647-2.25-37.2-5.926-36.953-8.198.249-2.284 17.205-2.31 37.852-.06" transform="translate(0 -1) translate(0 33)"/>
            <path fill="#CCC" d="M33.778 66.602c8.43 5.345 15.875 12.796 19.877 24.604 1.121.546 2.24.437 3.346.108 4.723-1.382 8.11-3.215 9.514-5.737-4.48-6.872-8.974-13.735-14.059-20.078l.477-2.039-5.176-6.73-10.036 4.598-4.365 2.565.422 2.71z" transform="translate(0 -1) translate(0 33)"/>
            <path fill="#E2E2E2" d="M63.778 88.38c1.221-.827 2.15-1.76 2.737-2.803-4.48-6.872-8.974-13.734-14.059-20.077l.477-2.04-5.176-6.73-5.145 2.346c8.04 9.268 15.51 18.826 21.166 29.305" transform="translate(0 -1) translate(0 33)"/>
            <path fill="#EAEAEA" d="M58.495.366c-8.305 15.951-23.026 26.836-41.512 34.77-7.217 3.288-2.211 23.971 7.416 25.909l5.938-1.251-1.106-2.467c4.04-1.36 8.28-4.34 11.846-2.796 2.752 1.188 6.592 1.326 9.459-.429 8.998.239 16.409 2.87 24.294 7.84C59.17 44.281 51.449 24.748 58.495.366" transform="translate(0 -1) translate(0 33)"/>
            <g transform="translate(0 -1) translate(0 33) translate(14 34)">
                <mask id="prefix__c" fill="#fff">
                    <use xlink:href="#prefix__a"/>
                </mask>
                <path fill="url(#prefix__b)" d="M1.178 17.137C.914 16.44.7 15.723.499 15.009l-.087-.436L44.376.38l1.147 3.422c3.202 8.569 8.511 16.541 15.307 24.14-7.859-4.881-15.24-7.449-24.242-7.651-2.867 1.755-6.695 1.63-9.451.466-3.545-1.505-7.783 1.45-11.823 2.81l1.098 2.43-5.939 1.262c-4.203-.823-7.509-5.184-9.295-10.122" mask="url(#prefix__c)"/>
            </g>
            <path fill="#006D93" d="M4.504 42.52C-3.53 48.284 2.468 62.983 10.9 61.384L4.504 42.52z" transform="translate(0 -1) translate(0 33)"/>
        </g>
        <g transform="translate(0 -1) translate(0 83)">
            <mask id="prefix__f" fill="#fff">
                <use xlink:href="#prefix__d"/>
            </mask>
            <path fill="url(#prefix__e)" d="M.976 2.789l.064.311c.068.273.135.549.215.814 1.375 4.576 5.163 8.32 9.645 7.471L7.291.753.976 2.789z" mask="url(#prefix__f)"/>
        </g>
        <g>
            <path fill="#F2D85D" d="M17.741 64.923c-9.24-8.73-10.216-17.3-7.065-25.785l-8.629 4.52.01.013c-4.334 3.735-.245 17.984 5.628 22.017l.491.297.968.154 8.597-1.216zM57.328 2.386c-6.992 2.56-7.842 18.287-1.904 35.109C61.374 54.318 71.49 66.388 78.47 63.83c6.991-2.558 8.732-18.422 2.794-35.243-5.939-16.808-16.956-28.76-23.936-26.2" transform="translate(0 -1) translate(3 30)"/>
            <path fill="#F2D85D" d="M55.353 37.257l26.002-8.392.93 2.862C86.966 47.34 85.018 61.43 78.47 63.83c-6.98 2.559-17.096-9.512-23.046-26.335l-.07-.238z" transform="translate(0 -1) translate(3 30)"/>
            <path fill="#0089B7" d="M78.562 63.548c-6.95 2.502-18.118-8.164-24.362-25.53-6.264-17.404-4.452-32.687 2.522-35.2 6.96-2.5 18.129 8.179 24.362 25.53 6.262 17.417 4.464 32.689-2.522 35.2m.68 1.91c9.457-3.092 10.2-20.511 3.74-37.79-6.18-17.164-18.03-29.96-26.94-26.76-8.936 3.223-9.928 20.578-3.741 37.79 6.18 17.177 18.04 29.974 26.94 26.76" transform="translate(0 -1) translate(3 30)"/>
            <path fill="#0089B7" d="M58.532 45.361c-3.77-5.348-5.592-10.618-6.135-17.244l11.718-1.63c1.096-.232 2.092.12 3.19 1.31 3.013 3.368 3.73 8.504 2.867 11.074-.534 1.656-1.352 1.81-2.423 2.143l-9.216 4.347z" transform="translate(0 -1) translate(3 30)"/>
        </g>
        <g transform="translate(0 -1) translate(57 62)">
            <mask id="prefix__i" fill="#fff">
                <use xlink:href="#prefix__g"/>
            </mask>
            <path fill="url(#prefix__h)" d="M.423 5.642l.658 1.665c.895 2.054 2.039 4.052 3.451 6.054l9.217-4.347c1.07-.333 1.89-.487 2.423-2.143.432-1.291.472-3.22.023-5.24L15.914.64.423 5.642z" mask="url(#prefix__i)"/>
        </g>
        <g>
            <path fill="#E2E2E2" d="M63.047 28.343c-1.73.59-2.2 3.896-1.046 7.366 1.152 3.482 3.487 5.827 5.217 5.238 1.73-.59 2.2-3.896 1.048-7.377-1.154-3.47-3.49-5.817-5.22-5.227" transform="translate(0 -1) translate(4 29)"/>
            <path fill="#605959" d="M63.88 29.407c-1.252.436-1.523 3.033-.598 5.809.912 2.787 2.675 4.694 3.925 4.27 1.252-.435 1.522-3.032.598-5.82-.914-2.776-2.676-4.683-3.926-4.259" transform="translate(0 -1) translate(4 29)"/>
            <path fill="#F2D85D" d="M.561 57.264l-.43-1.409 8.482-2.737.404 1.431c1.22 3.77 3.677 7.552 7.724 11.373l-8.597 1.216-.969-.154-.49-.297c-2.569-1.764-4.79-5.484-6.124-9.423" transform="translate(0 -1) translate(4 29)"/>
            <path fill="#494949" d="M13.232 38.968C5.628 42.36 11.496 64.5 20.855 65.106c-.661 1.157-2.04 1.31-3.772 1.134C11.087 63.227 4.23 48.252 9.84 39.973c1.725-1.32 2.63-1.27 3.392-1.005" transform="translate(0 -1) translate(4 29)"/>
            <path fill="#006D93" d="M79.602 65.244C72.637 67.78 61.4 56.85 55.084 39.139 48.74 21.36 50.51 5.793 57.511 3.248 64.475.723 75.714 11.64 82.03 29.353c6.333 17.778 4.573 33.359-2.427 35.89m.698 1.963c8.953-3.257 9.895-20.946 3.614-38.534-6.238-17.524-18.177-30.61-27.103-27.373-8.95 3.245-9.896 20.946-3.626 38.533 6.25 17.523 18.19 30.608 27.115 27.374" transform="translate(0 -1) translate(4 29)"/>
            <path fill="#605959" d="M2.702 45.433l3.448-1.52.035-.094c.076-.248.162-.482.249-.727l.132-.314-3.604 1.723-.052.14-.187.71-.021.082zM2.37 47.355l3.326-1.278.048-.336c.015-.132.042-.263.068-.395l.052-.26-3.375 1.407-.047.31c-.025.12-.038.24-.052.372l-.02.18zM2.256 49.191l3.325-1.267-.012-.123c.004-.146.019-.278.022-.423l.018-.387-3.325 1.388-.01.303c0 .122-.015.254-.015.376l-.003.133zM12.637 65.074l-.23-.231c-.098-.108-.207-.218-.306-.326l-.119-.134-3.361.947.086.094c.086.107.185.203.282.31l.198.205 3.45-.865zM11.302 63.602l-.073-.104c-.097-.108-.195-.229-.291-.348l-.2-.277-3.247 1.105.128.172c.086.107.183.215.269.321l.106.133 3.308-1.002zM10.24 62.186l-.117-.146-.25-.393-.134-.209-3.27 1.102.165.262c.072.117.157.224.242.343l.031.052 3.332-1.01z" transform="translate(0 -1) translate(4 29)"/>
            <path fill="#0089B7" d="M46.55 58.092c-5.197 1.148-8.92.05-11.65-1.561l-19.16 5.975c.872.8 2.224 1.897 3.63 2.499 1.18.785 1.988.728 2.948.517L35.93 61.58c3.59 1.205 6.368 1.156 8.272-.243 1.161-.724 1.86-1.89 2.348-3.246" transform="translate(0 -1) translate(4 29)"/>
            <path fill="#006D93" d="M22.513 65.396l5.697 6.981 9.828-7.612c2.44-.5 4.238-1.605 5.771-2.959-2.519.236-5.634.7-8.39-.573l-12.906 4.163z" transform="translate(0 -1) translate(4 29)"/>
            <path fill="#323232" d="M43.085 62.323c1.184 3.303 2.727 5.441 4.58 6.617l1.847-1.769c-2.19-1.881-3.8-3.965-4.84-6.255l-1.587 1.407z" transform="translate(0 -1) translate(4 29)"/>
            <path fill="#CCC" d="M47.672 68.77l.147 1.33c-2.37-1.366-4.29-3.594-5.537-7.11l.784-.718c.95 2.427 2.184 4.738 4.606 6.498" transform="translate(0 -1) translate(4 29)"/>
            <path fill="#AFAFAF" d="M47.819 70.099L49.886 68.318 49.687 67.019 47.648 68.876z" transform="translate(0 -1) translate(4 29)"/>
            <path fill="#E2E2E2" d="M47.704 68.7l-.227-.158c-1.557-1.106-2.888-2.954-3.95-5.696l-.19-.496 1.331-1.168.11.219c.973 2.003 2.402 3.85 4.262 5.524l.267.235-1.603 1.54zm.132.344l1.847-1.77-.008-.256c-2.17-1.854-3.768-3.925-4.787-6.19l-.112-.193-1.748 1.536-.057.188c1.181 3.327 2.756 5.506 4.656 6.71l.21-.025z" transform="translate(0 -1) translate(4 29)"/>
            <path fill="#005977" d="M48.446 64.343c.032 1.157-.127 2.283-1.245 3.281-1.631-1.442-2.74-3.314-3.663-5.446l.35-.424c1.092 1.919 2.546 2.977 4.558 2.589" transform="translate(0 -1) translate(4 29)"/>
            <path fill="#006D93" d="M49.513 63.596c-.178 1.185-.38 2.366-1.48 3.523l-.883.525c.862-.868 1.316-1.925 1.264-3.233l1.099-.816z" transform="translate(0 -1) translate(4 29)"/>
            <path fill="#7C7C7C" d="M34.387 73.84l-1.494-1.135-1.288-.894 1.23-1.362c1.7-1.76 3.703-3.512 5.855-5.296 1.089-.733 2.131-1.702 3.484-2.174l.093-.076c.22.668.489 1.318.799 1.936-1.124.376-2.162 1.09-2.955 2.342l-5.724 6.66z" transform="translate(0 -1) translate(4 29)"/>
            <path fill="#005977" d="M27.425 71.318c.476 1.22 1.578 1.814 4.44.545 2.036-2.599 5.286-5.419 8.913-8.016.666-.304 1.572-.813 2.206-1.486-5.148 1.7-10.566 5.44-15.559 8.957" transform="translate(0 -1) translate(4 29)"/>
        </g>
        <g transform="translate(0 -1) translate(47 90)">
            <mask id="prefix__l" fill="#fff">
                <use xlink:href="#prefix__j"/>
            </mask>
            <path fill="url(#prefix__k)" d="M.836.785c.984 1.798 2.353 2.847 4.602 2.642l1.073-.82c-2.584.06-4.222-.763-4.767-2.562l-.908.74z" mask="url(#prefix__l)"/>
        </g>
        <g>
            <path fill="#0089B7" d="M50 124.314c-1.105.33-2.224.438-3.344-.108l-.582-1.584.515.19c.843.19 1.672.06 2.502-.19 4.132-1.204 7.244-2.76 8.892-4.82l.52-.759 1.013 1.534c-1.406 2.522-4.792 4.355-9.515 5.737" transform="translate(0 -1) translate(7)"/>
            <path fill="#00B7FF" d="M8.58 55.785L9.35 53.413 6.964 52.642 6.205 55.028z" transform="translate(0 -1) translate(7)"/>
            <path fill="#00BCFF" d="M70.358 109.921L71.997 104.821 66.897 103.184 65.258 108.282zM24.688 29.157L24.464 26.748 26.874 26.512 27.097 28.921z" transform="translate(0 -1) translate(7)"/>
            <path fill="#35A5A8" d="M23.945 109.983L24.829 107.221 22.08 106.338 21.196 109.087z" transform="translate(0 -1) translate(7)"/>
            <path fill="#00BCFF" d="M94.67 130.994L96.634 124.908 90.549 122.944 88.585 129.029zM99.156 123.748L100.04 120.999 97.292 120.103 96.407 122.865zM93.956 77.164L95.76 71.548 90.143 69.744 88.341 75.349zM.729 4.073L.463 1.259 3.277.994 3.554 3.808zM18.889 48.116L20.762 42.313 14.944 40.45 13.084 46.256zM60.947 20.387c.084-.77-.472-1.474-1.253-1.56-.769-.084-1.475.484-1.559 1.252-.084.784.483 1.49 1.252 1.573.782.085 1.475-.483 1.56-1.265" transform="translate(0 -1) translate(7)"/>
        </g>
    </g>
</svg>
