<svg id="Layer_1" data-name="Layer 1" xmlns="http://www.w3.org/2000/svg" viewBox="0 0 66.73 68.48"><defs><style>.cls-1,.cls-2{fill:#38c4ea;}.cls-2{fill-rule:evenodd;}</style></defs><path class="cls-1" d="M60.8,46.33a11.47,11.47,0,1,0,3.36,8.11,11.45,11.45,0,0,0-3.36-8.11m-8.11-5.92a14,14,0,1,1-9.92,4.11A14,14,0,0,1,52.69,40.41Z"/><path class="cls-2" d="M52.66,55.5h6.78a1.17,1.17,0,0,1,0,2.34H52.66a1.65,1.65,0,0,1-2.83-1.17,1.67,1.67,0,0,1,.49-1.17V47.14a1.17,1.17,0,1,1,2.34,0V55.5Z"/><path class="cls-2" d="M5,0H8V5.32a3.51,3.51,0,0,0-.79,2.24,3.59,3.59,0,1,0,6.39-2.24V0H20.4V5.32a3.51,3.51,0,0,0-.79,2.24A3.59,3.59,0,1,0,26,5.32V0h6.77V5.32a3.59,3.59,0,1,0,6.39,2.24,3.51,3.51,0,0,0-.79-2.24V0h6.89V5.32a3.51,3.51,0,0,0-.79,2.24,3.59,3.59,0,1,0,7.17,0,3.51,3.51,0,0,0-.79-2.24V0h3a5,5,0,0,1,5,5v9H0V5A5,5,0,0,1,5,0"/><path class="cls-2" d="M0,17.62H58.93V39.88a15.8,15.8,0,0,0-4.13-1.13v-17H4.12V55.3a.86.86,0,0,0,.85.84H37a15.7,15.7,0,0,0,1,4.13H5a5,5,0,0,1-5-5V17.62Z"/><rect class="cls-1" x="10.27" y="27.69" width="8.13" height="8.13"/><rect class="cls-1" x="25.3" y="27.69" width="8.13" height="8.13"/><rect class="cls-1" x="40.53" y="27.69" width="8.13" height="8.13"/><rect class="cls-1" x="10.27" y="42.37" width="8.13" height="8.13"/><rect class="cls-1" x="25.3" y="42.37" width="8.13" height="8.13"/></svg>