<svg id="Layer_1" data-name="Layer 1" xmlns="http://www.w3.org/2000/svg" xmlns:xlink="http://www.w3.org/1999/xlink" viewBox="0 0 55.82 60"><defs><style>.cls-1{fill:#f51f02;}.cls-2{clip-path:url(#clip-path);}.cls-3{clip-path:url(#clip-path-2);}.cls-4{fill:#2db99a;}.cls-5{fill:#fff;}</style><clipPath id="clip-path"><path class="cls-1" d="M1692.16-816h-7.72a3.88,3.88,0,0,0,3.86,3.87A3.87,3.87,0,0,0,1692.16-816Z"/></clipPath><clipPath id="clip-path-2"><path class="cls-1" d="M1701.82-821.83h-1c-1.35-1.35-2.9-3.29-2.9-5.8v-5.79a9.57,9.57,0,0,0-9.66-9.66,9.57,9.57,0,0,0-9.66,9.66v5.79a8.38,8.38,0,0,1-2.9,5.8h-1a1.82,1.82,0,0,0-1.93,1.93,1.82,1.82,0,0,0,1.93,1.93h27a1.83,1.83,0,0,0,1.94-1.93A1.83,1.83,0,0,0,1701.82-821.83Z"/></clipPath></defs><path class="cls-1" d="M1692.16-816h-7.72a3.88,3.88,0,0,0,3.86,3.87A3.87,3.87,0,0,0,1692.16-816Z"/><g class="cls-2"><rect class="cls-1" x="-685.9" y="-897.17" width="2781.82" height="1738.64"/></g><path class="cls-1" d="M1701.82-821.83h-1c-1.35-1.35-2.9-3.29-2.9-5.8v-5.79a9.57,9.57,0,0,0-9.66-9.66,9.57,9.57,0,0,0-9.66,9.66v5.79a8.38,8.38,0,0,1-2.9,5.8h-1a1.82,1.82,0,0,0-1.93,1.93,1.82,1.82,0,0,0,1.93,1.93h27a1.83,1.83,0,0,0,1.94-1.93A1.83,1.83,0,0,0,1701.82-821.83Z"/><g class="cls-3"><rect class="cls-1" x="-685.9" y="-897.17" width="2781.82" height="1738.64"/></g><rect class="cls-4" y="6.61" width="55.82" height="53.39" rx="4.24"/><path class="cls-5" d="M3.33,22.52H52.49a0,0,0,0,1,0,0V54.43a2.42,2.42,0,0,1-2.42,2.42H6.26a2.93,2.93,0,0,1-2.93-2.93V22.52A0,0,0,0,1,3.33,22.52Z"/><rect class="cls-4" x="9.59" y="26.2" width="6.66" height="6.66" rx="1.21"/><rect class="cls-4" x="19.58" y="26.2" width="6.66" height="6.66" rx="1.21"/><rect class="cls-4" x="29.58" y="26.2" width="6.66" height="6.66" rx="1.21"/><rect class="cls-4" x="39.57" y="26.2" width="6.66" height="6.66" rx="1.21"/><rect class="cls-4" x="9.59" y="36.19" width="6.66" height="6.66" rx="1.21"/><rect class="cls-4" x="29.58" y="36.19" width="6.66" height="6.66" rx="1.21"/><rect class="cls-4" x="39.57" y="36.19" width="6.66" height="6.66" rx="1.21"/><rect class="cls-4" x="9.59" y="46.52" width="6.66" height="6.66" rx="1.21"/><rect class="cls-4" x="19.58" y="46.52" width="6.66" height="6.66" rx="1.21"/><rect class="cls-4" x="29.58" y="46.52" width="6.66" height="6.66" rx="1.21"/><rect class="cls-4" x="19.58" y="36.15" width="6.66" height="6.66" rx="1.21"/><circle class="cls-5" cx="13.4" cy="12.07" r="3.38"/><rect class="cls-4" x="11.21" width="4.37" height="14.29" rx="2.19"/><circle class="cls-5" cx="41.41" cy="12.07" r="3.38"/><rect class="cls-4" x="39.22" width="4.37" height="14.29" rx="2.19"/></svg>