<svg id="Layer_1" data-name="Layer 1" xmlns="http://www.w3.org/2000/svg" viewBox="0 0 79.21 66.58"><defs><style>.cls-1{fill:#2db99a;}</style></defs><path class="cls-1" d="M58.38,62.9V8.12a5.66,5.66,0,0,1-1.16-.22L21,0V62.83H18.81V13.68c-.37,0-12.5,3.47-13.3,3.7l-.93.25c-.32.09-.65.21-1,.28V62.83H0v3.75H8.47V60.74h5.69v5.84H32.42V51.79H47V66.58H59.31V62.9ZM14.16,57.62H8.47V51.79h5.69Zm0-9.79H8.47v-5.9h5.69Zm0-9.86H8.47v-5.9h5.69Zm0-9.85H8.47V22.28h5.69Zm17.5,19.71H26v-5.9h5.7Zm0-9.86H26v-5.9h5.7Zm0-9.85H26V22.28h5.7Zm0-9.79H26v-5.9h5.7Zm10.83,29.5h-5.7v-5.9h5.7Zm0-9.86h-5.7v-5.9h5.7Zm0-9.85h-5.7V22.28h5.7Zm0-9.79h-5.7v-5.9h5.7Zm11,29.5H47.69v-5.9h5.76Zm0-9.86H47.69V32.28c0-.16.05-.21.21-.21h5.55Zm0-9.85H47.69V22.28h5.76Zm0-9.79H47.69v-5.9h5.76Z"/><path class="cls-1" d="M75.74,62.83V28c0-.22-.12-.19-.31-.25L61.54,23.85a5.23,5.23,0,0,0-1-.25V62.9H59.28v3.68h5.94V60.74h5.69v5.84h8.3V62.83ZM71,57.62H65.19V51.79H71Zm0-9.79H65.19v-5.9H71ZM71,38H65.19V32.28c0-.16,0-.21.2-.21H71Z"/></svg>