<svg id="Layer_1" data-name="Layer 1" xmlns="http://www.w3.org/2000/svg" viewBox="0 0 60.26 68.48"><defs><style>.cls-1{fill:#f0c417;}</style></defs><path class="cls-1" d="M52.07,7.28a11.06,11.06,0,0,1,5.87,3.53A9.46,9.46,0,0,1,60.26,17V58.49A9.6,9.6,0,0,1,57,65.59a11.41,11.41,0,0,1-7.64,2.89H12a11.23,11.23,0,0,1-7.52-2.7,9.09,9.09,0,0,1-3.1-6.89V56.1H4.1v2.79a6.36,6.36,0,0,0,2.18,4.84,8.48,8.48,0,0,0,5.7,2H49.37a8.61,8.61,0,0,0,5.81-2.18,6.84,6.84,0,0,0,2.34-5.07V17a6.69,6.69,0,0,0-1.66-4.37A8.23,8.23,0,0,0,51.45,10l.62-2.67Z"/><path class="cls-1" d="M39.53,37.51c-.62-.31-6.45-3.32-7.28-3.89a2.33,2.33,0,0,1-1.06-2.41A2.21,2.21,0,0,1,31.71,30a6.87,6.87,0,0,0,1.35-2.48,2.69,2.69,0,0,1,.49-.85,1.28,1.28,0,0,0,.31-1.47,3.7,3.7,0,0,1-.2-1.62c0-.09,0-.17,0-.26a4,4,0,0,1,0-.55s0-.09,0-.14v-.06c0-.14,0-.31,0-.49,0-.42,0-.94,0-1.24a3.81,3.81,0,0,0-2.64-3.43,5.78,5.78,0,0,0-2-.35h0a5.78,5.78,0,0,0-2,.35,3.81,3.81,0,0,0-2.64,3.44c0,.29,0,.81,0,1.23,0,.18,0,.35,0,.49v.07s0,.09,0,.13a4,4,0,0,1,.05.55c0,.09,0,.17,0,.26a3.7,3.7,0,0,1-.2,1.62,1.28,1.28,0,0,0,.31,1.47,2.48,2.48,0,0,1,.48.85A7,7,0,0,0,26.41,30a2.21,2.21,0,0,1,.52,1.25,2.33,2.33,0,0,1-1.06,2.41c-.83.57-6.66,3.58-7.28,3.89l-1.16.54a.14.14,0,0,0-.09.13V41.9H40.78V38.19a.15.15,0,0,0-.1-.14Z"/><path class="cls-1" d="M50.5,2.94a9.87,9.87,0,0,0-7-2.94H9.92a9.87,9.87,0,0,0-7,2.94A10.07,10.07,0,0,0,0,10V13.7H6.83c.4,0,.7.47.87,1.07a4,4,0,0,1,.15,1,3.81,3.81,0,0,1-.14,1c-.15.55-.45,1-.88,1H0v11H6.83a1.48,1.48,0,0,1,1.32,1.15,3.65,3.65,0,0,1,.16,1,3,3,0,0,1-.15,1,1.38,1.38,0,0,1-1.33,1H0V43.83H6.85l.14,0c.44,0,.8.33,1,.84a3.43,3.43,0,0,1,.25,1.2,3.39,3.39,0,0,1-.17,1.2A1.2,1.2,0,0,1,6.9,48H0V52a9.33,9.33,0,0,0,2.88,6.82,10.08,10.08,0,0,0,7,2.77H43.49a9.87,9.87,0,0,0,7-2.94,10,10,0,0,0,2.91-7.07V10A10,10,0,0,0,50.5,2.94ZM43.6,42a2.78,2.78,0,0,1-2.78,2.78H17.3A2.78,2.78,0,0,1,14.52,42V38.18a3,3,0,0,1,1.75-2.71l1.08-.5c.86-.42,5.37-2.78,6.64-3.5a9.92,9.92,0,0,1-1.59-3,4.07,4.07,0,0,1-.77-4.31,1.45,1.45,0,0,0,0-.45c0-.12,0-.25,0-.37s0-.13,0-.2a3.21,3.21,0,0,1-.05-.58V21.11c0-.14,0-.28,0-.4a6.64,6.64,0,0,1,4.49-6,8.57,8.57,0,0,1,6,0,6.65,6.65,0,0,1,4.49,6c0,.31,0,.75,0,1.16v.66a3.21,3.21,0,0,1-.05.58c0,.07,0,.16,0,.2s0,.25,0,.37a1.45,1.45,0,0,0,0,.45,4.09,4.09,0,0,1-.77,4.31,9.92,9.92,0,0,1-1.59,3c1.27.72,5.78,3.08,6.64,3.5l1.08.5a3,3,0,0,1,1.75,2.72Z"/></svg>