<svg id="Layer_1" data-name="Layer 1" xmlns="http://www.w3.org/2000/svg" viewBox="0 0 75.22 66"><defs><style>.cls-1{fill:#884b9e;}.cls-2{fill:none;stroke:#884b9e;stroke-miterlimit:10;stroke-width:2px;}</style></defs><path class="cls-1" d="M63.29,12c3.89.73,10.82,2.83,11.93,10.8-2.92-2.66-9.79-4.64-14.64-3"/><path class="cls-1" d="M54.18,14.82C58,8.11,63.86,3.26,69.37,1.69c-3.94-3.43-12.62-1.41-18,4"/><path class="cls-1" d="M48.76,23.09A46.18,46.18,0,0,0,45,42.21c-3.9-3.66-6.32-7.91-5.81-13.06"/><path class="cls-1" d="M42.86,14.11c-9-.28-17.46,8.64-15.29,17.23C31.64,26.63,38.69,21.5,44,20.76"/><path class="cls-1" d="M48.76,12.85C47.19,1.66,35.54.58,29,6.28c4.85,1,8.58,2.68,9.59,4.5"/><path class="cls-2" d="M0,52.08c2.69,0,5.39,3.23,8.08,3.23s5.38-3.23,8.08-3.23,5.38,3.23,8.07,3.23,5.39-3.23,8.08-3.23,5.39,3.23,8.08,3.23,5.38-3.23,8.08-3.23,5.38,3.23,8.07,3.23"/><path class="cls-2" d="M0,61.77C2.69,61.77,5.39,65,8.08,65s5.38-3.23,8.08-3.23S21.54,65,24.23,65s5.39-3.23,8.08-3.23S37.7,65,40.39,65s5.38-3.23,8.08-3.23S53.85,65,56.54,65"/><circle class="cls-1" cx="8.08" cy="9.77" r="6.46"/><path class="cls-1" d="M49.27,16.53,65.43,65l7.27-1.62S66.24,26.23,49.27,16.53Z"/></svg>