<svg id="Layer_1" data-name="Layer 1" xmlns="http://www.w3.org/2000/svg" viewBox="0 0 71.62 66.58"><defs><style>.cls-1{fill:#38c4ea;}</style></defs><path class="cls-1" d="M67,59.78H62.47a1.36,1.36,0,0,1-1.37-1.36h0a1.37,1.37,0,0,1,1.37-1.37H67a1.91,1.91,0,0,0,1.9-1.91V11.43A1.9,1.9,0,0,0,67,9.53H62.61a1.37,1.37,0,0,1-1.37-1.37h0a1.37,1.37,0,0,1,1.37-1.37H67a4.64,4.64,0,0,1,4.64,4.64V55.14A4.64,4.64,0,0,1,67,59.78Z"/><path class="cls-1" d="M4.64,59.78H9.15a1.36,1.36,0,0,0,1.37-1.36h0a1.37,1.37,0,0,0-1.37-1.37H4.64a1.91,1.91,0,0,1-1.9-1.91V11.43a1.9,1.9,0,0,1,1.9-1.9H9a1.37,1.37,0,0,0,1.37-1.37h0A1.37,1.37,0,0,0,9,6.79H4.64A4.64,4.64,0,0,0,0,11.43V55.14A4.64,4.64,0,0,0,4.64,59.78Z"/><path class="cls-1" d="M47.64,33.6a.16.16,0,0,0-.09-.14c-.43-.2-.81-.37-1.17-.55C45.75,32.6,39.85,29.56,39,29a2.39,2.39,0,0,1-1.08-2.45,2.26,2.26,0,0,1,.54-1.26,7.14,7.14,0,0,0,1.36-2.5,2.26,2.26,0,0,1,.5-.86,1.31,1.31,0,0,0,.31-1.49,3.81,3.81,0,0,1-.21-1.64,2.26,2.26,0,0,0,0-.26c0-.21,0-.41,0-.56s0-.09,0-.14v-.56c0-.42,0-.95,0-1.25a3.86,3.86,0,0,0-2.68-3.47,5.89,5.89,0,0,0-2-.35h0a6,6,0,0,0-2,.35A3.85,3.85,0,0,0,31.07,16c0,.29,0,.82,0,1.24,0,.19,0,.36,0,.49v.08s0,.09,0,.13a4.15,4.15,0,0,1,.05.56c0,.09,0,.17,0,.26a3.78,3.78,0,0,1-.2,1.64,1.28,1.28,0,0,0,.31,1.49,2.38,2.38,0,0,1,.49.86,7.16,7.16,0,0,0,1.37,2.5,2.18,2.18,0,0,1,.53,1.26A2.38,2.38,0,0,1,32.57,29c-.84.57-6.73,3.61-7.36,3.92L24,33.46a.16.16,0,0,0-.09.14v3.76h23.7Z"/><path class="cls-1" d="M52.56,0H19a5.94,5.94,0,0,0-5.93,5.93V60.64A6,6,0,0,0,19,66.58H52.56a6,6,0,0,0,5.93-5.94V5.93A5.94,5.94,0,0,0,52.56,0ZM21.09,33.6a3,3,0,0,1,1.77-2.74l1.1-.51c.86-.43,5.43-2.81,6.71-3.55a9.85,9.85,0,0,1-1.61-3.05,4.15,4.15,0,0,1-.78-4.37,1.45,1.45,0,0,0,0-.45c0-.12,0-.25,0-.37s0-.14,0-.21a3.25,3.25,0,0,1-.05-.59V15.93a6.75,6.75,0,0,1,4.55-6.06,8.67,8.67,0,0,1,6.06,0,6.75,6.75,0,0,1,4.55,6.06c0,.31,0,.75,0,1.18v.65a4.49,4.49,0,0,1-.05.59,2.06,2.06,0,0,0,0,.21c0,.12,0,.25,0,.37a1.35,1.35,0,0,0,0,.45,4.15,4.15,0,0,1-.78,4.37,10.07,10.07,0,0,1-1.61,3.05c1.28.74,5.85,3.12,6.71,3.55l1.09.51A3,3,0,0,1,50.5,33.6v3.8a2.81,2.81,0,0,1-2.81,2.81H23.9a2.81,2.81,0,0,1-2.81-2.81Zm26.5,20.68H24a1.37,1.37,0,1,1,0-2.74h23.6a1.37,1.37,0,0,1,0,2.74Zm1.64-7.49H22.37a1.38,1.38,0,1,1,0-2.74H49.23a1.38,1.38,0,1,1,0,2.74Z"/></svg>