<svg id="Layer_1" data-name="Layer 1" xmlns="http://www.w3.org/2000/svg" viewBox="0 0 77.84 68"><defs><style>.cls-1{fill:#f73;}</style></defs><path class="cls-1" d="M39.68,68A10.13,10.13,0,0,0,49.81,57.88H29.56A10.12,10.12,0,0,0,39.68,68Z"/><path class="cls-1" d="M44.7,4.45a5.06,5.06,0,0,0-10,0,20.21,20.21,0,0,1,5-.62A20.46,20.46,0,0,1,44.7,4.45Z"/><path class="cls-1" d="M66.63,56.38c-4-5.79-5.27-10.83-6.88-21.94a92.05,92.05,0,0,1-.51-10.17,19.61,19.61,0,0,0-39.21,0,93.77,93.77,0,0,1-.5,10.17c-1.62,11.11-2.86,16.15-6.89,21.94h0a.34.34,0,0,0,.27.56H66.37a.35.35,0,0,0,.28-.56Z"/><path class="cls-1" d="M7,33.68A10,10,0,0,1,7,18a1.57,1.57,0,0,0,.59-1.24h0A1.6,1.6,0,0,0,5,15.52,13.2,13.2,0,0,0,5,36.16a1.6,1.6,0,0,0,2.6-1.25h0A1.55,1.55,0,0,0,7,33.68Z"/><path class="cls-1" d="M8.42,20.05a8.05,8.05,0,0,0,0,11.57,1.6,1.6,0,1,0,2.2-2.31,4.88,4.88,0,0,1,0-6.94,1.6,1.6,0,0,0,.5-1.16h0A1.6,1.6,0,0,0,8.42,20.05Z"/><path class="cls-1" d="M72.87,15.52a1.6,1.6,0,0,0-2.6,1.24h0A1.57,1.57,0,0,0,70.86,18a10,10,0,0,1,0,15.68,1.55,1.55,0,0,0-.59,1.23h0a1.6,1.6,0,0,0,2.6,1.25,13.2,13.2,0,0,0,0-20.64Z"/><path class="cls-1" d="M69.42,20.05a1.6,1.6,0,0,0-2.7,1.16h0a1.65,1.65,0,0,0,.5,1.16,4.88,4.88,0,0,1,0,6.94,1.63,1.63,0,0,0-.5,1.16,1.6,1.6,0,0,0,2.7,1.15,8.05,8.05,0,0,0,0-11.57Z"/></svg>