<svg id="Layer_1" data-name="Layer 1" xmlns="http://www.w3.org/2000/svg" viewBox="0 0 85.5 58.02"><defs><style>.cls-1{fill:#884b9e;}</style></defs><rect class="cls-1" x="22.88" width="39.73" height="22.29" rx="2.74"/><rect class="cls-1" y="45.43" width="18" height="12.59" rx="2.93"/><rect class="cls-1" x="33.75" y="45.43" width="18" height="12.59" rx="2.93"/><rect class="cls-1" x="67.5" y="45.43" width="18" height="12.59" rx="2.93"/><path class="cls-1" d="M9,43.13a1.23,1.23,0,0,0,1.24-1.24V36a2,2,0,0,1,2-2H41.5v8a1.25,1.25,0,0,0,2.49,0v-8H73.23a2,2,0,0,1,2,2v5.92a1.25,1.25,0,0,0,2.49,0V36a4.52,4.52,0,0,0-4.51-4.52H44V25.26a1.25,1.25,0,0,0-2.49,0v6.19H12.27A4.53,4.53,0,0,0,7.75,36v5.92A1.24,1.24,0,0,0,9,43.13Z"/></svg>