<svg id="Layer_1" data-name="Layer 1" xmlns="http://www.w3.org/2000/svg" viewBox="0 0 58.02 66.58"><defs><style>.cls-1{fill:#884b9e;}</style></defs><path class="cls-1" d="M46.68,0h-.52V5.18a3.62,3.62,0,0,1-3.6,3.61H9.78a3.61,3.61,0,0,1-3.6-3.61V0H5.66A5.66,5.66,0,0,0,0,5.66V56.11a5.65,5.65,0,0,0,5.66,5.66H25.28a19.73,19.73,0,0,1-3.41-6.52H9.66V52.43H21.25a20.47,20.47,0,0,1-.25-3,19.28,19.28,0,0,1,.15-2.29H9.66V44.37h12a19.55,19.55,0,0,1,2.24-5.24H13.28V36.3H26a20,20,0,0,1,4.72-3.91H9.66V29.56H41a19.57,19.57,0,0,1,6.06,1,20.15,20.15,0,0,1,5.31,2.65V5.66A5.66,5.66,0,0,0,46.68,0ZM40,24.42H13.28V21.59H40Zm5-8.06H8.33V13.52H44.94Z"/><path class="cls-1" d="M40.93,32.39A17.1,17.1,0,1,0,58,49.48,17.1,17.1,0,0,0,40.93,32.39Zm4.64,13.12h1.25a1,1,0,1,1,0,2.07H45.57A5.6,5.6,0,0,1,40,51.72h-1.8l7.16,6.51a1,1,0,0,1,0,1.46,1.19,1.19,0,0,1-.8.3,1.21,1.21,0,0,1-.81-.3l-9.1-8.27a1,1,0,0,1-.25-.34,1,1,0,0,1,0-.79,1.07,1.07,0,0,1,.62-.56,1.26,1.26,0,0,1,.43-.08H40a3.4,3.4,0,0,0,3.21-2.07H35.44a1,1,0,1,1,0-2.07H43.2A3.4,3.4,0,0,0,40,43.44H35.44a1,1,0,1,1,0-2.07H46.82a1,1,0,1,1,0,2.07h-2.3A5,5,0,0,1,45.57,45.51Z"/></svg>