<svg id="Layer_1" data-name="Layer 1" xmlns="http://www.w3.org/2000/svg" xmlns:xlink="http://www.w3.org/1999/xlink" viewBox="0 0 62.22 57.72"><defs><style>.cls-1{fill:#f51f02;}.cls-2{clip-path:url(#clip-path);}.cls-3{clip-path:url(#clip-path-2);}.cls-4{fill:none;stroke:#884b9e;stroke-linecap:round;stroke-linejoin:round;stroke-width:2.22px;}.cls-5{fill:#884b9e;}</style><clipPath id="clip-path"><path class="cls-1" d="M2047.6-813.56h-7.72a3.88,3.88,0,0,0,3.86,3.87A3.87,3.87,0,0,0,2047.6-813.56Z"/></clipPath><clipPath id="clip-path-2"><path class="cls-1" d="M2057.26-819.35h-1c-1.35-1.36-2.9-3.29-2.9-5.8v-5.79a9.57,9.57,0,0,0-9.66-9.66,9.57,9.57,0,0,0-9.66,9.66v5.79c0,2.51-1.54,4.44-2.9,5.8h-1a1.82,1.82,0,0,0-1.93,1.93,1.82,1.82,0,0,0,1.93,1.93h27a1.83,1.83,0,0,0,1.94-1.93A1.83,1.83,0,0,0,2057.26-819.35Z"/></clipPath></defs><path class="cls-1" d="M2047.6-813.56h-7.72a3.88,3.88,0,0,0,3.86,3.87A3.87,3.87,0,0,0,2047.6-813.56Z"/><g class="cls-2"><rect class="cls-1" x="-330.46" y="-894.69" width="2781.82" height="1738.64"/></g><path class="cls-1" d="M2057.26-819.35h-1c-1.35-1.36-2.9-3.29-2.9-5.8v-5.79a9.57,9.57,0,0,0-9.66-9.66,9.57,9.57,0,0,0-9.66,9.66v5.79c0,2.51-1.54,4.44-2.9,5.8h-1a1.82,1.82,0,0,0-1.93,1.93,1.82,1.82,0,0,0,1.93,1.93h27a1.83,1.83,0,0,0,1.94-1.93A1.83,1.83,0,0,0,2057.26-819.35Z"/><g class="cls-3"><rect class="cls-1" x="-330.46" y="-894.69" width="2781.82" height="1738.64"/></g><path class="cls-4" d="M5.56,52.22a4.44,4.44,0,0,1-4.45-4.44V5.56A4.45,4.45,0,0,1,5.56,1.11H56.67a4.44,4.44,0,0,1,4.44,4.45V47.78a4.44,4.44,0,0,1-4.44,4.44H38.89"/><circle class="cls-4" cx="7.78" cy="7.78" r="2.22"/><circle class="cls-4" cx="16.67" cy="7.78" r="2.22"/><circle class="cls-4" cx="25.56" cy="7.78" r="2.22"/><line class="cls-4" x1="1.11" y1="14.44" x2="61.11" y2="14.44"/><path class="cls-5" d="M32,45.39a10,10,0,0,0,.12-1.55A11.25,11.25,0,0,0,32,42.31l2.54-2a1.55,1.55,0,0,0,.39-2l-1.65-2.85a1.55,1.55,0,0,0-1.91-.66l-3,1.21a9.82,9.82,0,0,0-2.65-1.53l-.46-3.21A1.55,1.55,0,0,0,23.72,30H20.44a1.55,1.55,0,0,0-1.53,1.32l-.46,3.21A9.52,9.52,0,0,0,15.82,36l-3-1.21a1.55,1.55,0,0,0-1.91.66L9.24,38.33a1.56,1.56,0,0,0,.39,2l2.55,2a9.89,9.89,0,0,0-.12,1.54,9.67,9.67,0,0,0,.12,1.53l-2.55,2a1.56,1.56,0,0,0-.39,2l1.65,2.85a1.55,1.55,0,0,0,1.91.66l3-1.21a9.82,9.82,0,0,0,2.65,1.53l.46,3.21a1.55,1.55,0,0,0,1.53,1.32h3.28a1.55,1.55,0,0,0,1.53-1.33l.46-3.2a10.27,10.27,0,0,0,2.64-1.53l3,1.21a1.55,1.55,0,0,0,1.91-.66l1.65-2.85a1.56,1.56,0,0,0-.39-2Zm-9.9,3.85a5.4,5.4,0,1,1,5.4-5.4A5.4,5.4,0,0,1,22.08,49.24Z"/><path class="cls-5" d="M44,29.15a5.85,5.85,0,0,0,.07-.72A5.82,5.82,0,0,0,44,27.7l1.39-1.05a.77.77,0,0,0,.2-1l-1.25-2.16a.78.78,0,0,0-1-.32l-1.59.67a5.59,5.59,0,0,0-1.27-.75l-.21-1.7a.77.77,0,0,0-.76-.67H37a.77.77,0,0,0-.76.67l-.21,1.7a6,6,0,0,0-1.27.75l-1.6-.67a.77.77,0,0,0-1,.32L31,25.65a.77.77,0,0,0,.2,1l1.39,1.05a5.82,5.82,0,0,0-.07.73,5.85,5.85,0,0,0,.07.72L31.17,30.2a.76.76,0,0,0-.2,1l1.25,2.16a.76.76,0,0,0,1,.33l1.6-.68a5.75,5.75,0,0,0,1.26.75l.22,1.7a.77.77,0,0,0,.76.68h2.49a.78.78,0,0,0,.77-.68l.21-1.7A5.32,5.32,0,0,0,41.75,33l1.6.68a.77.77,0,0,0,1-.33l1.25-2.16a.78.78,0,0,0-.21-1Zm-5.71,2.36a3.09,3.09,0,1,1,3.08-3.08A3.07,3.07,0,0,1,38.27,31.51Z"/></svg>